<?xml version="1.0" encoding="UTF-8"?>
<svg width="1278px" height="778px" viewBox="0 0 1278 778" version="1.1" xmlns="http://www.w3.org/2000/svg" xmlns:xlink="http://www.w3.org/1999/xlink">
    <!-- Generator: Sketch 47 (45396) - http://www.bohemiancoding.com/sketch -->
    <title>BACKGROUND</title>
    <desc>Created with Sketch.</desc>
    <defs></defs>
    <g id="BEAMER" stroke="none" stroke-width="1" fill="none" fill-rule="evenodd">
        <g id="Beamer" transform="translate(0.000000, -22.000000)">
            <g id="BACKGROUND" transform="translate(0.000000, 22.000000)">
                <path d="M900.210526,164.578947 C900.210526,170.858311 895.309479,175.947368 889.264217,175.947368 C883.216837,175.947368 878.315789,170.858311 878.315789,164.578947 C878.315789,158.301784 883.216837,153.210526 889.264217,153.210526 C895.309479,153.210526 900.210526,158.301784 900.210526,164.578947" id="Fill-166" fill="#72C2B0"></path>
                <path d="M604.210526,213.421053 C604.210526,219.700417 599.309479,224.789474 593.264217,224.789474 C587.216837,224.789474 582.315789,219.700417 582.315789,213.421053 C582.315789,207.143889 587.216837,202.052632 593.264217,202.052632 C599.309479,202.052632 604.210526,207.143889 604.210526,213.421053" id="Fill-170" fill="#72C2B0"></path>
                <g id="Group-2-Copy" transform="translate(628.000000, 746.000000)">
                    <polyline id="Fill-117" fill="#FFFFFF" points="22.1958998 35.0383838 13.7170661 25.3689969 0 25.3689969 22.1958998 50.6795789 44.3917996 25.3689969 30.6747335 25.3689969 22.1958998 35.0383838"></polyline>
                    <polyline id="Fill-118" fill="#F4C961" points="30.9128287 25.3689969 13.9551613 25.3689969 22.433995 35.0383838 30.9128287 25.3689969"></polyline>
                    <polyline id="Fill-119" fill="#FFFFFF" points="22.1958998 15.9842798 30.6747335 25.6521025 44.3917996 25.6521025 22.1958998 0.343084621 0 25.6521025 13.7170661 25.6521025 22.1958998 15.9842798"></polyline>
                    <polyline id="Fill-120" fill="#F4C961" points="13.9551613 25.6521025 30.9128287 25.6521025 22.433995 15.9842798 13.9551613 25.6521025"></polyline>
                </g>
                <g id="Group-2-Copy-4" transform="translate(1193.684211, 186.052632)">
                    <polyline id="Fill-117" fill="#FFFFFF" points="22.1958998 35.0383838 13.7170661 25.3689969 0 25.3689969 22.1958998 50.6795789 44.3917996 25.3689969 30.6747335 25.3689969 22.1958998 35.0383838"></polyline>
                    <polyline id="Fill-118" fill="#F4C961" points="30.9128287 25.3689969 13.9551613 25.3689969 22.433995 35.0383838 30.9128287 25.3689969"></polyline>
                    <polyline id="Fill-119" fill="#FFFFFF" points="22.1958998 15.9842798 30.6747335 25.6521025 44.3917996 25.6521025 22.1958998 0.343084621 0 25.6521025 13.7170661 25.6521025 22.1958998 15.9842798"></polyline>
                    <polyline id="Fill-120" fill="#F4C961" points="13.9551613 25.6521025 30.9128287 25.6521025 22.433995 15.9842798 13.9551613 25.6521025"></polyline>
                </g>
                <polyline id="Fill-33-Copy-3" fill="#72C2B0" points="1192.4219 674.052632 1216.42105 698.052632 1192.4219 722.052632 1168.42105 698.052632 1192.4219 674.052632"></polyline>
                <polyline id="Fill-33-Copy-2" fill="#F4C961" points="819.000847 298 843 322 819.000847 346 795 322 819.000847 298"></polyline>
                <polyline id="Fill-33-Copy" fill="#F4C961" points="651.790321 31.9473684 675.789474 55.9473684 651.790321 79.9473684 627.789474 55.9473684 651.790321 31.9473684"></polyline>
                <polyline id="Fill-35" fill="#72C2B0" points="49.6842105 13.3933439 63.0937577 0 111.157895 48 63.0937577 96 49.6842105 82.6066561 84.3371076 48 49.6842105 13.3933439"></polyline>
                <polyline id="Fill-35-Copy-4" fill="#72C2B0" points="1208 45.3407123 1221.40955 31.9473684 1269.47368 79.9473684 1221.40955 127.947368 1208 114.554025 1242.6529 79.9473684 1208 45.3407123"></polyline>
                <path d="M18.1052632,715.736842 C18.1052632,720.621053 14.1473684,724.578947 9.26315789,724.578947 C4.38063158,724.578947 0.421052632,720.621053 0.421052632,715.736842 C0.421052632,710.854316 4.38063158,706.894737 9.26315789,706.894737 C14.1473684,706.894737 18.1052632,710.854316 18.1052632,715.736842" id="Fill-40" fill="#E6776F"></path>
                <path d="M147.789474,190.684211 C147.789474,195.568421 143.831579,199.526316 138.947368,199.526316 C134.064842,199.526316 130.105263,195.568421 130.105263,190.684211 C130.105263,185.801684 134.064842,181.842105 138.947368,181.842105 C143.831579,181.842105 147.789474,185.801684 147.789474,190.684211" id="Fill-40-Copy-4" fill="#E6776F"></path>
                <path d="M843.368421,754.473684 C843.368421,759.357895 839.410526,763.315789 834.526316,763.315789 C829.643789,763.315789 825.684211,759.357895 825.684211,754.473684 C825.684211,749.591158 829.643789,745.631579 834.526316,745.631579 C839.410526,745.631579 843.368421,749.591158 843.368421,754.473684" id="Fill-40-Copy-8" fill="#E6776F"></path>
                <path d="M1277.89474,456.789474 C1277.89474,461.673684 1273.93684,465.631579 1269.05263,465.631579 C1264.17011,465.631579 1260.21053,461.673684 1260.21053,456.789474 C1260.21053,451.906947 1264.17011,447.947368 1269.05263,447.947368 C1273.93684,447.947368 1277.89474,451.906947 1277.89474,456.789474" id="Fill-40-Copy" fill="#FFFFFF"></path>
                <path d="M843.368421,593.631579 C843.368421,598.515789 839.410526,602.473684 834.526316,602.473684 C829.643789,602.473684 825.684211,598.515789 825.684211,593.631579 C825.684211,588.749053 829.643789,584.789474 834.526316,584.789474 C839.410526,584.789474 843.368421,588.749053 843.368421,593.631579" id="Fill-40-Copy-7" fill="#FFFFFF"></path>
                <path d="M58.5263158,337.210526 C58.5263158,342.094737 54.5684211,346.052632 49.6842105,346.052632 C44.8016842,346.052632 40.8421053,342.094737 40.8421053,337.210526 C40.8421053,332.328 44.8016842,328.368421 49.6842105,328.368421 C54.5684211,328.368421 58.5263158,332.328 58.5263158,337.210526" id="Fill-40-Copy-5" fill="#FFFFFF"></path>
                <path d="M1193.68421,268.157895 C1193.68421,273.042105 1189.72632,277 1184.84211,277 C1179.95958,277 1176,273.042105 1176,268.157895 C1176,263.275368 1179.95958,259.315789 1184.84211,259.315789 C1189.72632,259.315789 1193.68421,263.275368 1193.68421,268.157895" id="Fill-40-Copy-2" fill="#FFFFFF"></path>
            </g>
        </g>
    </g>
</svg>