<?xml version="1.0" encoding="UTF-8"?>
<svg width="141px" height="599px" viewBox="0 0 141 599" version="1.1" xmlns="http://www.w3.org/2000/svg" xmlns:xlink="http://www.w3.org/1999/xlink">
    <!-- Generator: Sketch 47 (45396) - http://www.bohemiancoding.com/sketch -->
    <title>BAR</title>
    <desc>Created with Sketch.</desc>
    <defs>
        <polygon id="path-1" points="156.512168 43.0749005 83.1035967 92.3514578 1.63759745 37.6658805 17.755358 25.9932517 83.1035967 69.8607889 156.512168 20.5842317 229.923644 69.8607889 303.320597 20.5842317 376.729168 69.8607889 450.137739 20.5842317 523.555024 69.8607889 596.972309 20.5842317 643.241012 51.6390759 631.86521 66.4944809 596.972309 43.0749005 523.555024 92.3514578 450.137739 43.0749005 376.729168 92.3514578 303.320597 43.0749005 229.923644 92.3514578"></polygon>
    </defs>
    <g id="BEAMER" stroke="none" stroke-width="1" fill="none" fill-rule="evenodd">
        <g id="Beamer" transform="translate(-914.000000, -201.000000)">
            <g id="BAR" transform="translate(988.050707, 688.970705) rotate(-90.000000) translate(-988.050707, -688.970705) translate(538.050707, 636.970705)">
                <polyline id="Fill-156-Copy-2" stroke="#FFFFFF" stroke-width="46" fill="#DBDBDB" transform="translate(450.104943, 52.009662) rotate(-2.000000) translate(-450.104943, -52.009662) " points="229.845826 87.8932755 156.43435 38.6167182 83.0257788 87.8932755 1.55977959 33.2076981 17.6775401 21.5350694 83.0257788 65.4026066 156.43435 16.1260493 229.845826 65.4026066 303.242779 16.1260493 376.65135 65.4026066 450.059921 16.1260493 523.477206 65.4026066 596.894492 16.1260493 670.311777 65.4026066 743.731966 16.1280744 817.163775 65.4046317 882.53525 21.5350694 898.650106 33.2076981 817.163775 87.8912504 743.731966 38.6146931 670.311777 87.8932755 596.894492 38.6167182 523.477206 87.8932755 450.059921 38.6167182 376.65135 87.8932755 303.242779 38.6167182 229.845826 87.8932755"></polyline>
                <polyline id="Fill-156-Copy-3" stroke="#E6E6E6" stroke-width="21" fill="#DBDBDB" transform="translate(450.104943, 52.009662) rotate(-2.000000) translate(-450.104943, -52.009662) " points="229.845826 87.8932755 156.43435 38.6167182 83.0257788 87.8932755 1.55977959 33.2076981 17.6775401 21.5350694 83.0257788 65.4026066 156.43435 16.1260493 229.845826 65.4026066 303.242779 16.1260493 376.65135 65.4026066 450.059921 16.1260493 523.477206 65.4026066 596.894492 16.1260493 670.311777 65.4026066 743.731966 16.1280744 817.163775 65.4046317 882.53525 21.5350694 898.650106 33.2076981 817.163775 87.8912504 743.731966 38.6146931 670.311777 87.8932755 596.894492 38.6167182 523.477206 87.8932755 450.059921 38.6167182 376.65135 87.8932755 303.242779 38.6167182 229.845826 87.8932755"></polyline>
                <g id="Fill-156-Copy" transform="translate(322.439305, 56.467845) rotate(-2.000000) translate(-322.439305, -56.467845) ">
                    <use fill="#E6776F" fill-rule="evenodd" xlink:href="#path-1"></use>
                    <path stroke="#E6776F" stroke-width="10" d="M156.512223,49.0968977 L83.1035876,98.3734981 L-7.10172862,37.8214906 L17.6468754,19.8983264 L83.1036473,63.8387208 L156.512113,14.5622345 L229.923368,63.8386437 L303.320376,14.5620494 L376.729168,63.8387547 L450.137574,14.5623085 L523.555024,63.8389768 L596.972309,14.5624195 L650.446518,50.4534892 L632.97904,73.2638785 L596.972309,49.0967127 L523.555024,98.37327 L450.137905,49.0968237 L376.729168,98.373492 L303.320817,49.0970828 L229.92392,98.373603 L156.512223,49.0968977 Z"></path>
                </g>
            </g>
        </g>
    </g>
</svg>