<?xml version="1.0" encoding="UTF-8"?>
<svg width="370px" height="111px" viewBox="0 0 370 111" version="1.1" xmlns="http://www.w3.org/2000/svg" xmlns:xlink="http://www.w3.org/1999/xlink">
    <!-- Generator: Sketch 47 (45396) - http://www.bohemiancoding.com/sketch -->
    <title>TRES MIL</title>
    <desc>Created with Sketch.</desc>
    <defs></defs>
    <g id="BEAMER" stroke="none" stroke-width="1" fill="none" fill-rule="evenodd">
        <g id="Beamer" transform="translate(-763.000000, -48.000000)" fill="#FFFFFF">
            <g id="TRES-MIL" transform="translate(760.000000, 48.000000)">
                <text transform="translate(191.500000, 66.000000) rotate(-6.000000) translate(-191.500000, -66.000000) " font-family="Huge" font-size="100" font-weight="normal" letter-spacing="0.980000019">
                    <tspan x="39.1199999" y="91">TRES MI</tspan>
                    <tspan x="306.38" y="91">L</tspan>
                </text>
                <path d="M355.79,72.3200004 C355.71,71.9199984 355.650001,71.5800018 355.61,71.3000004 C355.57,71.019999 355.55,70.6800024 355.55,70.2800004 C355.39,68.5199916 355.39,66.7200096 355.55,64.8800004 C355.55,63.2799924 355.57,61.720008 355.61,60.2000004 C355.650001,58.6799928 355.67,57.1200084 355.67,55.5200004 C355.59,54.3199944 355.59,53.1400062 355.67,51.9800004 C355.750001,50.8199946 355.83,49.6400064 355.91,48.4400004 C356.070001,47.0799936 356.15,45.7000074 356.15,44.3000004 C356.15,42.8999934 356.19,41.5200072 356.27,40.1600004 C356.27,38.7999936 356.250001,37.4200074 356.21,36.0200004 C356.17,34.6199934 356.15,33.2400072 356.15,31.8800004 C356.15,30.599994 356.21,29.3400066 356.33,28.1000004 C356.450001,26.8599942 356.59,25.6000068 356.75,24.3200004 C357.070002,22.7999928 357.23,21.08001 357.23,19.1600004 C357.07,16.9199892 357.189998,14.7200112 357.59,12.5600004 C357.830002,10.7199912 357.830002,8.84000996 357.59,6.92000036 C357.51,6.43999796 357.450001,5.96000276 357.41,5.48000036 C357.37,4.99999796 357.39,4.52000276 357.47,4.04000036 C357.47,3.39999716 357.829997,2.88000236 358.55,2.48000036 C359.750006,1.91999756 361.189992,1.52000156 362.87,1.28000036 L364.07,1.28000036 C364.470002,1.28000036 364.869998,1.20000116 365.27,1.04000036 C365.510002,0.959999956 365.949997,0.999999556 366.59,1.16000036 C367.070003,1.16000036 367.31,1.35999836 367.31,1.76000036 C367.470001,2.40000356 367.59,2.83999916 367.67,3.08000036 C367.830001,4.20000596 367.95,5.31999476 368.03,6.44000036 C368.110001,7.56000596 368.23,8.67999476 368.39,9.80000036 C368.470001,10.4400036 368.490001,11.0599974 368.45,11.6600004 C368.41,12.2600034 368.190002,12.8799972 367.79,13.5200004 C367.79,13.6000008 367.770001,13.6600002 367.73,13.7000004 C367.69,13.7400006 367.67,13.8 367.67,13.8800004 C367.67,14.5200036 367.610001,15.179997 367.49,15.8600004 C367.37,16.5400038 367.35,17.2399968 367.43,17.9600004 C367.590001,18.1200012 367.590001,18.3199992 367.43,18.5600004 C367.43,19.6000056 367.410001,20.6399952 367.37,21.6800004 C367.33,22.7200056 367.270001,23.7599952 367.19,24.8000004 C367.11,24.9600012 367.07,25.0999998 367.07,25.2200004 C367.07,25.340001 367.030001,25.4799996 366.95,25.6400004 C366.709999,26.6800056 366.550001,27.7199952 366.47,28.7600004 C366.39,29.8000056 366.35,30.8399952 366.35,31.8800004 L366.35,41.9600004 C366.35,42.9200052 366.330001,43.8799956 366.29,44.8400004 C366.25,45.8000052 366.23,46.7599956 366.23,47.7200004 L366.23,48.4400004 C365.989999,49.4800056 365.87,50.4799956 365.87,51.4400004 L365.87,58.8800004 C365.87,61.2800124 365.750002,63.5999892 365.51,65.8400004 C365.43,66.4000032 365.41,66.9599976 365.45,67.5200004 C365.490001,68.0800032 365.470001,68.6399976 365.39,69.2000004 L365.39,71.3600004 C365.39,72.080004 365.110003,72.48 364.55,72.5600004 C363.829997,72.6400008 363.110004,72.7399998 362.39,72.8600004 C361.669997,72.980001 360.910004,73.0400004 360.11,73.0400004 L358.91,73.0400004 C358.509998,73.0400004 358.110002,73.0000008 357.71,72.9200004 C357.069997,72.9200004 356.430004,72.7200024 355.79,72.3200004 Z M361.19,91.1600004 C360.869999,90.9999996 360.590002,90.8800008 360.35,90.8000004 C360.109999,90.72 359.830002,90.6000012 359.51,90.4400004 C358.869997,90.1999992 358.250003,89.9400018 357.65,89.6600004 C357.049997,89.379999 356.430004,89.1600012 355.79,89.0000004 C355.389998,88.92 354.870004,88.6400028 354.23,88.1600004 C353.589997,87.7599984 353.389999,87.2800032 353.63,86.7200004 C353.870002,85.9999968 353.970001,85.3000038 353.93,84.6200004 C353.89,83.939997 353.790001,83.240004 353.63,82.5200004 C353.47,81.8799972 353.370001,81.2800032 353.33,80.7200004 C353.29,80.1599976 353.190001,79.6000032 353.03,79.0400004 C352.87,77.9199948 353.349995,77.1600024 354.47,76.7600004 C354.870002,76.5999996 355.289998,76.4800008 355.73,76.4000004 C356.170003,76.32 356.629998,76.2400008 357.11,76.1600004 C357.670003,75.9999996 358.229998,75.8800008 358.79,75.8000004 C359.350003,75.72 359.949997,75.6000012 360.59,75.4400004 C360.990002,75.36 361.349999,75.3000006 361.67,75.2600004 C361.990002,75.2200002 362.349998,75.2000004 362.75,75.2000004 C363.710005,75.2000004 364.389998,75.6799956 364.79,76.6400004 C364.870001,76.8000012 364.91,76.9399998 364.91,77.0600004 C364.91,77.180001 364.95,77.3199996 365.03,77.4800004 C365.270002,78.600006 365.489999,79.6599954 365.69,80.6600004 C365.890001,81.6600054 366.07,82.7199948 366.23,83.8400004 C366.310001,84.0800016 366.35,84.439998 366.35,84.9200004 C366.19,85.9600056 365.830003,86.5599996 365.27,86.7200004 C364.629997,86.9600016 364.170002,87.2999982 363.89,87.7400004 C363.609999,88.1800026 363.390001,88.6799976 363.23,89.2400004 C363.23,89.3200008 363.210001,89.4 363.17,89.4800004 C363.13,89.5600008 363.11,89.64 363.11,89.7200004 C362.869999,90.2000028 362.510003,90.5599992 362.03,90.8000004 C361.87,90.8800008 361.730001,90.9200004 361.61,90.9200004 C361.49,90.9200004 361.350001,90.9999996 361.19,91.1600004 Z" id="!" transform="translate(360.735000, 46.080000) rotate(-9.000000) translate(-360.735000, -46.080000) "></path>
                <path d="M9.79000056,91.320003 C9.71000016,90.920001 9.65000076,90.5800043 9.61000056,90.3000029 C9.57000035,90.0200015 9.55000055,89.6800049 9.55000055,89.2800029 C9.38999975,87.519994 9.38999975,85.720012 9.55000055,83.8800027 C9.55000055,82.2799946 9.57000035,80.7200102 9.61000056,79.2000025 C9.65000076,77.6799949 9.67000056,76.1200104 9.67000056,74.5200024 C9.59000015,73.3199963 9.59000015,72.1400081 9.67000056,70.9800022 C9.75000096,69.8199964 9.83000016,68.6400081 9.91000057,67.4400021 C10.0700014,66.0799952 10.1500006,64.700009 10.1500006,63.3000019 C10.1500006,61.8999949 10.1900002,60.5200086 10.2700006,59.1600018 C10.2700006,57.7999949 10.2500008,56.4200087 10.2100006,55.0200016 C10.1700004,53.6199946 10.1500006,52.2400083 10.1500006,50.8800015 C10.1500006,49.599995 10.21,48.3400076 10.3300006,47.1000013 C10.4500012,45.8599951 10.5899998,44.6000077 10.7500006,43.3200012 C11.0700022,41.7999936 11.2300006,40.0800107 11.2300006,38.160001 C11.0699998,35.9199897 11.1899986,33.7200117 11.5900006,31.5600008 C11.8300018,29.7199915 11.8300018,27.8400102 11.5900006,25.9200006 C11.5100002,25.4399982 11.4500008,24.9600029 11.4100006,24.4800005 C11.3700004,23.9999981 11.3900002,23.5200029 11.4700006,23.0400005 C11.4700006,22.3999972 11.829997,21.8800024 12.5500007,21.4800004 C13.7500067,20.9199976 15.1899924,20.5200016 16.8700008,20.2800004 L18.0700009,20.2800004 C18.4700029,20.2800004 18.8699989,20.2000012 19.2700009,20.0400004 C19.5100021,19.96 19.9499977,19.9999996 20.590001,20.1600004 C21.0700034,20.1600004 21.310001,20.3599984 21.310001,20.7600004 C21.4700018,21.4000036 21.5900006,21.8399992 21.670001,22.0800004 C21.8300018,23.2000061 21.9500006,24.3199949 22.030001,25.4400006 C22.1100014,26.5600062 22.2300002,27.679995 22.390001,28.8000007 C22.4700014,29.4400039 22.4900012,30.0599977 22.450001,30.6600007 C22.4100008,31.2600038 22.190003,31.8799976 21.790001,32.5200008 C21.790001,32.6000012 21.7700012,32.6600006 21.730001,32.7000008 C21.6900008,32.740001 21.670001,32.8000004 21.670001,32.8800008 C21.670001,33.5200041 21.6100016,34.1799975 21.490001,34.8600009 C21.3700004,35.5400043 21.3500006,36.2399974 21.430001,36.960001 C21.5900018,37.1200018 21.5900018,37.3199998 21.430001,37.560001 C21.430001,38.6000062 21.4100012,39.6399959 21.370001,40.6800011 C21.3300008,41.7200064 21.2700014,42.759996 21.190001,43.8000012 C21.1100006,43.960002 21.070001,44.1000006 21.070001,44.2200012 C21.070001,44.3400018 21.0300014,44.4800005 20.950001,44.6400013 C20.7099998,45.6800065 20.5500014,46.7199961 20.470001,47.7600014 C20.3900006,48.8000066 20.3500009,49.8399962 20.3500009,50.8800015 L20.3500009,60.9600019 C20.3500009,61.9200067 20.3300011,62.8799971 20.2900009,63.840002 C20.2500007,64.8000068 20.2300009,65.7599972 20.2300009,66.7200021 L20.2300009,67.4400021 C19.9899997,68.4800073 19.8700009,69.4799974 19.8700009,70.4400022 L19.8700009,77.8800025 C19.8700009,80.2800146 19.7500021,82.5999915 19.5100009,84.8400027 C19.4300005,85.4000056 19.4100007,85.96 19.4500009,86.5200028 C19.4900011,87.0800056 19.4700013,87.64 19.3900009,88.2000029 L19.3900009,90.3600029 C19.3900009,91.0800066 19.1100037,91.4800026 18.5500009,91.560003 C17.8299973,91.6400034 17.1100044,91.7400024 16.3900008,91.860003 C15.6699972,91.9800036 14.9100047,92.040003 14.1100007,92.040003 L12.9100007,92.040003 C12.5099987,92.040003 12.1100026,92.0000034 11.7100006,91.920003 C11.0699974,91.920003 10.4300038,91.720005 9.79000056,91.320003 Z M15.1900008,110.160004 C14.8699991,110.000003 14.5900019,109.880004 14.3500007,109.800004 C14.1099995,109.720003 13.8300023,109.600004 13.5100007,109.440004 C12.8699975,109.200002 12.2500037,108.940005 11.6500006,108.660004 C11.0499976,108.380002 10.4300038,108.160004 9.79000056,108.000004 C9.38999855,107.920003 8.87000373,107.640006 8.2300005,107.160004 C7.58999728,106.760002 7.38999927,106.280006 7.63000048,105.720003 C7.87000169,105 7.97000069,104.300007 7.93000049,103.620003 C7.89000029,102.94 7.79000129,102.240007 7.63000048,101.520003 C7.46999968,100.88 7.37000067,100.280006 7.33000047,99.7200033 C7.29000027,99.1600005 7.19000127,98.600006 7.03000046,98.0400032 C6.86999965,96.9199976 7.34999487,96.1600051 8.47000051,95.7600031 C8.87000253,95.6000023 9.28999834,95.4800035 9.73000056,95.4000031 C10.1700028,95.3200027 10.6299982,95.2400035 11.1100006,95.1600031 C11.6700034,95.0000023 12.2299979,94.8800035 12.7900007,94.8000031 C13.3500035,94.7200027 13.9499975,94.6000039 14.5900007,94.4400031 C14.9900028,94.3600027 15.3499992,94.3000033 15.6700008,94.2600031 C15.9900024,94.2200029 16.3499988,94.2000031 16.7500008,94.2000031 C17.7100057,94.2000031 18.3899989,94.6799983 18.7900009,95.6400031 C18.8700013,95.8000039 18.9100009,95.9400025 18.9100009,96.0600031 C18.9100009,96.1800037 18.9500005,96.3200024 19.0300009,96.4800032 C19.2700021,97.6000088 19.4899999,98.6599982 19.6900009,99.6600033 C19.8900019,100.660008 20.0700001,101.719998 20.2300009,102.840003 C20.3100013,103.080005 20.3500009,103.440001 20.3500009,103.920003 C20.1900001,104.960009 19.8300037,105.560003 19.2700009,105.720003 C18.6299977,105.960005 18.1700023,106.300001 17.8900009,106.740004 C17.6099994,107.180006 17.3900016,107.680001 17.2300008,108.240004 C17.2300008,108.320004 17.210001,108.400003 17.1700008,108.480004 C17.1300006,108.560004 17.1100008,108.640003 17.1100008,108.720004 C16.8699996,109.200006 16.5100032,109.560002 16.0300008,109.800004 C15.87,109.880004 15.7300014,109.920004 15.6100008,109.920004 C15.4900002,109.920004 15.3500016,110.000003 15.1900008,110.160004 Z" id="!" transform="translate(14.735001, 65.080002) rotate(171.000000) translate(-14.735001, -65.080002) "></path>
            </g>
        </g>
    </g>
</svg>